<!-- Generated from lucide-static 1.46.0; ISC license in ../LICENSE. -->
<svg xmlns="http://www.w3.org/2000/svg" width="24" height="24" viewBox="0 0 24 24">
  <defs>
    <mask id="cut-1" maskUnits="userSpaceOnUse" x="0" y="0" width="24" height="24" style="mask-type:luminance">
      <rect width="24" height="24" fill="white" />
      <g>
        <path d="M18.375 2.625a1 1 0 0 1 3 3l-9.013 9.014a2 2 0 0 1-.853.505l-2.873.84a.5.5 0 0 1-.62-.62l.84-2.873a2 2 0 0 1 .506-.852z" fill="black" stroke="black" stroke-width="5" stroke-linecap="round" stroke-linejoin="round" />
      </g>
    </mask>
  </defs>
  <g>
    <g mask="url(#cut-1)">
      <rect x="3" y="3" width="18" height="18" rx="2" fill="#000" stroke="#000" stroke-width="2" stroke-linecap="round" stroke-linejoin="round" />
    </g>
    <path d="M18.375 2.625a1 1 0 0 1 3 3l-9.013 9.014a2 2 0 0 1-.853.505l-2.873.84a.5.5 0 0 1-.62-.62l.84-2.873a2 2 0 0 1 .506-.852z" fill="#000" stroke="#000" stroke-width="2" stroke-linecap="round" stroke-linejoin="round" />
  </g>
</svg>
