<!-- Generated from lucide-static 1.46.0; ISC license in ../LICENSE. -->
<svg xmlns="http://www.w3.org/2000/svg" width="24" height="24" viewBox="0 0 24 24">
  <defs>
    <mask id="cut-1" maskUnits="userSpaceOnUse" x="0" y="0" width="24" height="24" style="mask-type:luminance">
      <rect width="24" height="24" fill="white" />
      <g>
        <g>
          <path d="M15 2h-4a2 2 0 0 0-2 2v11a2 2 0 0 0 2 2h8a2 2 0 0 0 2-2V8 Z" fill="black" stroke="black" stroke-width="3" stroke-linecap="round" stroke-linejoin="round" />
          <path d="M16.706 2.706A2.4 2.4 0 0 0 15 2v5a1 1 0 0 0 1 1h5a2.4 2.4 0 0 0-.706-1.706z" fill="black" stroke="black" stroke-width="3" stroke-linecap="round" stroke-linejoin="round" />
        </g>
      </g>
    </mask>
    <mask id="cut-2" maskUnits="userSpaceOnUse" x="0" y="0" width="24" height="24" style="mask-type:luminance">
      <rect width="24" height="24" fill="white" />
      <g>
        <path d="M14 2v5a1 1 0 0 0 1 1h5" transform="translate(1 0)" fill="none" stroke="black" stroke-width="1.5" stroke-linecap="round" stroke-linejoin="round" />
      </g>
    </mask>
  </defs>
  <g>
    <g mask="url(#cut-1)">
      <path d="M5 7a2 2 0 0 0-2 2v11a2 2 0 0 0 2 2h8a2 2 0 0 0 1.732-1 V7Z" fill="#000" stroke="none" />
    </g>
    <g mask="url(#cut-2)">
      <g>
        <path d="M15 2h-4a2 2 0 0 0-2 2v11a2 2 0 0 0 2 2h8a2 2 0 0 0 2-2V8 Z" fill="#000" stroke="none" />
        <path d="M16.706 2.706A2.4 2.4 0 0 0 15 2v5a1 1 0 0 0 1 1h5a2.4 2.4 0 0 0-.706-1.706z" fill="#000" stroke="none" />
      </g>
    </g>
  </g>
</svg>
